<svg id="Group_26742" data-name="Group 26742" xmlns="http://www.w3.org/2000/svg" width="79.636" height="55.06" viewBox="0 0 79.636 55.06">
  <g id="Group_26741" data-name="Group 26741" transform="translate(0 0)">
    <path id="Path_38062" data-name="Path 38062" d="M77.775,107.916c-.545-1.1-12.2-20.319-12.5-20.8a11.841,11.841,0,0,0-11.829-5.511l0,0a5.457,5.457,0,0,0-10.1,2.86V94H36.295V84.463a5.457,5.457,0,0,0-10.107-2.856,11.842,11.842,0,0,0-11.829,5.511c-.03.049-.121.2-2.315,3.874a1.333,1.333,0,1,0,2.289,1.365c1.8-3.026,2.244-3.759,2.3-3.842a9.181,9.181,0,0,1,17,4.809h0v13.134a18.133,18.133,0,0,0-23.7-6.72l1.975-3.314a1.333,1.333,0,1,0-2.29-1.365c-2.832,4.749-7.289,11.875-7.852,13.052a18.147,18.147,0,1,0,34.528,7.806v-3.541h7.047v3.541a18.147,18.147,0,1,0,34.433-8ZM33.629,85.848a11.9,11.9,0,0,0-4.65-3.468,2.791,2.791,0,0,1,4.65,2.082v1.385ZM18.147,131.4a15.482,15.482,0,1,1,15.482-15.482A15.5,15.5,0,0,1,18.147,131.4Zm18.147-26.806V96.665h7.047v7.928Zm7.047,5.118H36.295v-2.452h7.047Zm2.665-25.248a2.792,2.792,0,0,1,4.652-2.083,11.906,11.906,0,0,0-4.652,3.468Zm0,8.862h0a9.181,9.181,0,0,1,17-4.809c.16.26,3.491,5.846,6.7,11.222a18.133,18.133,0,0,0-23.7,6.72V93.325ZM61.489,131.4a15.482,15.482,0,1,1,15.482-15.482A15.5,15.5,0,0,1,61.489,131.4Z" transform="translate(0 -79.005)" fill="#efb844"/>
  </g>
</svg>
