<svg xmlns="http://www.w3.org/2000/svg" width="55.743" height="55.66" viewBox="0 0 55.743 55.66">
  <g id="startup" transform="translate(0.382 0.3)">
    <g id="Group_26724" data-name="Group 26724" transform="translate(27.056 25.854)">
      <g id="Group_26723" data-name="Group 26723">
        <path id="Path_38053" data-name="Path 38053" d="M253.423,240.734a1.076,1.076,0,1,0,0,1.521A1.075,1.075,0,0,0,253.423,240.734Z" transform="translate(-251.587 -240.418)" fill="#efb844" stroke="#efb844" stroke-width="0.6"/>
      </g>
    </g>
    <g id="Group_26726" data-name="Group 26726" transform="translate(33.403 10.906)">
      <g id="Group_26725" data-name="Group 26725">
        <path id="Path_38054" data-name="Path 38054" d="M319.779,102.991a5.377,5.377,0,1,0,0,7.6A5.375,5.375,0,0,0,319.779,102.991Zm-1.521,6.083a3.226,3.226,0,1,1,0-4.563A3.231,3.231,0,0,1,318.259,109.075Z" transform="translate(-310.603 -101.415)" fill="#efb844" stroke="#efb844" stroke-width="0.6"/>
      </g>
    </g>
    <g id="Group_26728" data-name="Group 26728" transform="translate(10.327 0)">
      <g id="Group_26727" data-name="Group 26727" transform="translate(0 0)">
        <path id="Path_38055" data-name="Path 38055" d="M140.437.315a1.072,1.072,0,0,0-.8-.314,47.772,47.772,0,0,0-12.914,2.674,36,36,0,0,0-13.662,8.286c-.8.8-1.57,1.639-2.311,2.516-3.511-2.067-6.324-1.419-8.1-.467-4.1,2.192-6.63,8.142-6.63,12.4a1.076,1.076,0,0,0,1.836.76,6.846,6.846,0,0,1,5.694-1.91l.377.377a37.825,37.825,0,0,0-1.776,5.223,3.044,3.044,0,0,0,.13,1.868,10.184,10.184,0,0,0-2.9,2.048c-2.768,2.768-3.33,9.515-3.353,9.8a1.075,1.075,0,0,0,1.072,1.16q.042,0,.085,0c.286-.022,7.032-.585,9.8-3.353a10.184,10.184,0,0,0,2.047-2.9,3.037,3.037,0,0,0,1.869.129,37.829,37.829,0,0,0,5.222-1.776l.377.377a6.846,6.846,0,0,1-1.91,5.694,1.075,1.075,0,0,0,.76,1.836c4.256,0,10.207-2.535,12.4-6.63.952-1.778,1.6-4.592-.467-8.1.876-.741,1.72-1.515,2.516-2.311a36.007,36.007,0,0,0,8.286-13.662,47.771,47.771,0,0,0,2.674-12.915A1.075,1.075,0,0,0,140.437.315ZM98.422,23.095c.668-3.233,2.608-6.78,5.241-8.189a5.73,5.73,0,0,1,5.727.27,43.48,43.48,0,0,0-4.518,7.365,1.134,1.134,0,0,0-.569-.334A9.191,9.191,0,0,0,98.422,23.095Zm7.036,16.762c-1.479,1.479-4.947,2.259-7.14,2.577.319-2.192,1.1-5.661,2.577-7.14a7.75,7.75,0,0,1,2.753-1.809l3.619,3.619A7.748,7.748,0,0,1,105.458,39.857Zm4.9-3.337a1.009,1.009,0,0,1-.94-.3l-2.106-2.106-2.777-2.777a1.01,1.01,0,0,1-.306-.94,34.917,34.917,0,0,1,1.343-4.107l8.893,8.893A34.9,34.9,0,0,1,110.361,36.52Zm15.486.569c-1.409,2.632-4.956,4.573-8.189,5.241a9.153,9.153,0,0,0,.881-5.906,1.123,1.123,0,0,0-.327-.543,43.5,43.5,0,0,0,7.365-4.518A5.73,5.73,0,0,1,125.846,37.089Zm2.425-10.92a39.028,39.028,0,0,1-3.1,2.782,41.316,41.316,0,0,1-8.573,5.314L106.486,24.155a41.309,41.309,0,0,1,5.314-8.573,39.025,39.025,0,0,1,2.783-3.1,33.532,33.532,0,0,1,12.224-7.547l9.011,9.011A33.53,33.53,0,0,1,128.271,26.169Zm8.32-14.492-7.516-7.516a48.347,48.347,0,0,1,9.436-1.919A48.354,48.354,0,0,1,136.591,11.677Z" transform="translate(-96.018 0)" fill="#efb844" stroke="#efb844" stroke-width="0.6"/>
      </g>
    </g>
    <g id="Group_26730" data-name="Group 26730" transform="translate(20.973 44.104)">
      <g id="Group_26729" data-name="Group 26729">
        <path id="Path_38056" data-name="Path 38056" d="M199.9,410.436a1.076,1.076,0,0,0-1.521,0l-3.041,3.042A1.075,1.075,0,1,0,196.857,415l3.041-3.042A1.076,1.076,0,0,0,199.9,410.436Z" transform="translate(-195.021 -410.121)" fill="#efb844" stroke="#efb844" stroke-width="0.6"/>
      </g>
    </g>
    <g id="Group_26732" data-name="Group 26732" transform="translate(5.764 28.896)">
      <g id="Group_26731" data-name="Group 26731">
        <path id="Path_38057" data-name="Path 38057" d="M58.47,269.016a1.075,1.075,0,0,0-1.521,0l-3.042,3.041a1.075,1.075,0,1,0,1.52,1.521l3.042-3.041A1.075,1.075,0,0,0,58.47,269.016Z" transform="translate(-53.592 -268.701)" fill="#efb844" stroke="#efb844" stroke-width="0.6"/>
      </g>
    </g>
    <g id="Group_26734" data-name="Group 26734" transform="translate(9.126 45.625)">
      <g id="Group_26733" data-name="Group 26733">
        <path id="Path_38058" data-name="Path 38058" d="M93.972,424.586a1.076,1.076,0,0,0-1.521,0l-7.285,7.284a1.075,1.075,0,1,0,1.521,1.521l7.285-7.284A1.075,1.075,0,0,0,93.972,424.586Z" transform="translate(-84.851 -424.271)" fill="#efb844" stroke="#efb844" stroke-width="0.6"/>
      </g>
    </g>
    <g id="Group_26736" data-name="Group 26736" transform="translate(0.523 45.625)">
      <g id="Group_26735" data-name="Group 26735">
        <path id="Path_38059" data-name="Path 38059" d="M13.972,424.586a1.076,1.076,0,0,0-1.521,0L5.166,431.87a1.075,1.075,0,1,0,1.521,1.521l7.285-7.284A1.075,1.075,0,0,0,13.972,424.586Z" transform="translate(-4.851 -424.271)" fill="#efb844" stroke="#efb844" stroke-width="0.6"/>
      </g>
    </g>
    <g id="Group_26738" data-name="Group 26738" transform="translate(0.001 36.499)">
      <g id="Group_26737" data-name="Group 26737" transform="translate(0)">
        <path id="Path_38060" data-name="Path 38060" d="M9.121,339.725a1.076,1.076,0,0,0-1.521,0L.316,347.01a1.075,1.075,0,0,0,1.521,1.521l7.284-7.285A1.075,1.075,0,0,0,9.121,339.725Z" transform="translate(-0.001 -339.41)" fill="#efb844" stroke="#efb844" stroke-width="0.6"/>
      </g>
    </g>
    <g id="Group_26740" data-name="Group 26740" transform="translate(30.098 21.291)">
      <g id="Group_26739" data-name="Group 26739">
        <path id="Path_38061" data-name="Path 38061" d="M283.228,198.305a1.076,1.076,0,0,0-1.521,0l-1.521,1.521a1.075,1.075,0,0,0,1.521,1.521l1.521-1.521A1.076,1.076,0,0,0,283.228,198.305Z" transform="translate(-279.871 -197.99)" fill="#efb844" stroke="#efb844" stroke-width="0.6"/>
      </g>
    </g>
  </g>
</svg>
