<svg xmlns="http://www.w3.org/2000/svg" width="55.454" height="55.501" viewBox="0 0 55.454 55.501">
  <g id="mission" transform="translate(0.221 0.22)">
    <path id="Path_38049" data-name="Path 38049" d="M165.8,155.86a1.372,1.372,0,0,0,0-2.743,10.972,10.972,0,1,0,10.972,10.972,1.372,1.372,0,0,0-2.743,0,8.229,8.229,0,1,1-8.229-8.229Zm0,0" transform="translate(-138.178 -136.651)" fill="#efb844" stroke="#efb844" stroke-width="0.3"/>
    <path id="Path_38050" data-name="Path 38050" d="M53.791,19.293a1.373,1.373,0,0,0-2.62.82A24.788,24.788,0,1,1,34.948,3.89a1.373,1.373,0,0,0,.82-2.62A27.522,27.522,0,1,0,53.791,19.293Zm0,0" transform="translate(0 0)" fill="#efb844" stroke="#efb844" stroke-width="0.3"/>
    <path id="Path_38051" data-name="Path 38051" d="M100.118,78.156a1.483,1.483,0,0,0-1.372-1.492c-.41-.035-.82-.07-1.24-.07a19.2,19.2,0,1,0,19.2,19.2,12.087,12.087,0,0,0-.091-1.484,1.377,1.377,0,0,0-2.726.4c0,.029.009.057.015.085.03.332.059.662.059,1A16.458,16.458,0,1,1,97.505,79.337h0c.34,0,.67.029,1,.059l.257.021a1.3,1.3,0,0,0,1.353-1.242c0-.007,0-.013,0-.019Zm0,0" transform="translate(-69.884 -68.356)" fill="#efb844" stroke="#efb844" stroke-width="0.3"/>
    <path id="Path_38052" data-name="Path 38052" d="M253.564,35.182V40.1l-9.2,9.2a1.372,1.372,0,0,0,1.906,1.973l.034-.034,9.2-9.2h4.918a1.371,1.371,0,0,0,.97-.4l8.229-8.229a1.371,1.371,0,0,0-.97-2.341h-4.115V26.953a1.371,1.371,0,0,0-2.341-.97l-8.229,8.229a1.37,1.37,0,0,0-.4.97Zm2.743.568,5.486-5.486v2.175a1.372,1.372,0,0,0,1.372,1.372h2.175L259.854,39.3h-3.547Zm0,0" transform="translate(-217.713 -22.83)" fill="#efb844" stroke="#efb844" stroke-width="0.3"/>
  </g>
</svg>
