<svg xmlns="http://www.w3.org/2000/svg" width="34.451" height="29.151" viewBox="0 0 34.451 29.151">
  <g id="quote-left" transform="translate(0 -36.545)">
    <g id="Group_87397" data-name="Group 87397" transform="translate(0 36.545)">
      <path id="Path_86850" data-name="Path 86850" d="M11.925,49.8H7.288A1.979,1.979,0,0,1,5.3,47.808v-.662A5.106,5.106,0,0,1,6.853,43.4,5.108,5.108,0,0,1,10.6,41.845h1.325a1.343,1.343,0,0,0,1.325-1.325V37.87a1.343,1.343,0,0,0-1.325-1.325H10.6a10.33,10.33,0,0,0-4.11.839A10.5,10.5,0,0,0,.839,43.036,10.325,10.325,0,0,0,0,47.146V61.721a3.834,3.834,0,0,0,1.159,2.816A3.835,3.835,0,0,0,3.975,65.7h7.951A3.958,3.958,0,0,0,15.9,61.721v-7.95A3.959,3.959,0,0,0,11.925,49.8Z" transform="translate(0 -36.545)" fill="#efb844"/>
      <path id="Path_86851" data-name="Path 86851" d="M270.561,50.955a3.833,3.833,0,0,0-2.816-1.159h-4.638a1.979,1.979,0,0,1-1.987-1.988v-.662a5.3,5.3,0,0,1,5.3-5.3h1.325a1.344,1.344,0,0,0,1.325-1.325V37.87a1.344,1.344,0,0,0-1.325-1.325h-1.325a10.333,10.333,0,0,0-4.111.839,10.5,10.5,0,0,0-5.652,5.652,10.328,10.328,0,0,0-.839,4.11V61.721A3.958,3.958,0,0,0,259.8,65.7h7.95a3.958,3.958,0,0,0,3.975-3.975v-7.95A3.833,3.833,0,0,0,270.561,50.955Z" transform="translate(-237.269 -36.545)" fill="#efb844"/>
    </g>
  </g>
</svg>
