<svg xmlns="http://www.w3.org/2000/svg" width="53.106" height="60.692" viewBox="0 0 53.106 60.692">
  <g id="pdf" transform="translate(0)">
    <path id="Path_1040" data-name="Path 1040" d="M99.793,0A3.8,3.8,0,0,0,96,3.793V56.9a3.8,3.8,0,0,0,3.793,3.793h37.933a3.8,3.8,0,0,0,3.793-3.793V15.173L126.346,0Z" transform="translate(-88.414)" fill="#eee"/>
    <path id="Path_1041" data-name="Path 1041" d="M355.793,15.173h11.38L352,0V11.38A3.8,3.8,0,0,0,355.793,15.173Z" transform="translate(-314.068)" fill="#b0b7bd"/>
    <path id="Path_1042" data-name="Path 1042" d="M395.38,139.38,384,128h11.38Z" transform="translate(-342.274 -112.827)" fill="#e9ecef"/>
    <path id="Path_1043" data-name="Path 1043" d="M77.519,260.863a1.9,1.9,0,0,1-1.9,1.9H33.9a1.9,1.9,0,0,1-1.9-1.9V241.9a1.9,1.9,0,0,1,1.9-1.9H75.623a1.9,1.9,0,0,1,1.9,1.9Z" transform="translate(-32 -211.551)" fill="#efb844"/>
    <g id="Group_1275" data-name="Group 1275" transform="translate(8.267 34.888)">
      <path id="Path_1044" data-name="Path 1044" d="M101.744,295.367a1.044,1.044,0,0,1,1.03-1.047h3.5a3.792,3.792,0,0,1,0,7.583h-2.532v2a.952.952,0,0,1-.971,1.045,1.022,1.022,0,0,1-1.03-1.045Zm2,.863v3.778h2.532a1.89,1.89,0,0,0,0-3.778Z" transform="translate(-101.744 -294.32)" fill="#fff"/>
      <path id="Path_1045" data-name="Path 1045" d="M188.871,305.966a.949.949,0,0,1-1.047-.939v-8.615a1.032,1.032,0,0,1,1.047-.941h3.473c6.93,0,6.779,10.494.137,10.494Zm.956-8.643v6.794h2.517c4.095,0,4.277-6.794,0-6.794Z" transform="translate(-177.62 -295.335)" fill="#fff"/>
      <path id="Path_1046" data-name="Path 1046" d="M289.12,297.43v2.411h3.867a1.173,1.173,0,0,1,1.092,1.075,1.054,1.054,0,0,1-1.092.91H289.12v3.184a.9.9,0,0,1-.908.939.963.963,0,0,1-1.075-.939V296.4a.958.958,0,0,1,1.075-.941h5.324a.946.946,0,0,1,1.062.941,1.048,1.048,0,0,1-1.062,1.032H289.12Z" transform="translate(-265.16 -295.321)" fill="#fff"/>
    </g>
    <path id="Path_1047" data-name="Path 1047" d="M132.036,417.9H96v1.9h36.036a1.9,1.9,0,0,0,1.9-1.9V416A1.9,1.9,0,0,1,132.036,417.9Z" transform="translate(-88.414 -366.688)" fill="#cad1d8"/>
  </g>
</svg>
