<svg xmlns="http://www.w3.org/2000/svg" width="297.759" height="297.759" viewBox="0 0 297.759 297.759">
  <g id="Group_88205" data-name="Group 88205" transform="translate(0 -59.471)">
    <path id="Path_99249" data-name="Path 99249" d="M148.981,711.529h-2.027a2.635,2.635,0,0,1,0-5.27h2.027a2.635,2.635,0,1,1,0,5.27m-22.3,0h-2.027a2.635,2.635,0,1,1,0-5.27h2.027a2.635,2.635,0,1,1,0,5.27m-22.3,0h-2.027a2.635,2.635,0,0,1,0-5.27h2.027a2.635,2.635,0,1,1,0,5.27m-22.3,0H80.064a2.635,2.635,0,0,1,0-5.27h2.027a2.635,2.635,0,1,1,0,5.27m-22.3,0H57.768a2.635,2.635,0,0,1,0-5.27h2.027a2.635,2.635,0,1,1,0,5.27m-22.3,0H35.472a2.635,2.635,0,0,1,0-5.27H37.5a2.635,2.635,0,1,1,0,5.27M15.974,707.38a2.621,2.621,0,0,1-1.38-.392c-.627-.386-1.248-.8-1.845-1.231a2.635,2.635,0,0,1,3.082-4.275c.494.356,1.008.7,1.528,1.02a2.635,2.635,0,0,1-1.385,4.878M3.327,689.733A2.636,2.636,0,0,1,.76,687.681c-.162-.717-.3-1.449-.412-2.178a2.635,2.635,0,0,1,5.21-.791c.091.6.206,1.21.341,1.8a2.636,2.636,0,0,1-2.572,3.218M2.635,667.49A2.635,2.635,0,0,1,0,664.855v-2.027a2.635,2.635,0,0,1,5.27,0v2.027a2.635,2.635,0,0,1-2.635,2.635m0-22.3A2.635,2.635,0,0,1,0,642.558v-2.027a2.635,2.635,0,0,1,5.27,0v2.027a2.635,2.635,0,0,1-2.635,2.635m0-22.3A2.635,2.635,0,0,1,0,620.262v-2.027a2.635,2.635,0,0,1,5.27,0v2.027A2.635,2.635,0,0,1,2.635,622.9m0-22.3A2.635,2.635,0,0,1,0,597.966v-2.027a2.635,2.635,0,0,1,5.27,0v2.027A2.635,2.635,0,0,1,2.635,600.6m0-22.3A2.635,2.635,0,0,1,0,575.669v-2.027a2.635,2.635,0,1,1,5.27,0v2.027A2.635,2.635,0,0,1,2.635,578.3" transform="translate(0 -354.298)" fill="#fff"/>
    <path id="Path_99250" data-name="Path 99250" d="M267.634,454.259H149.313a2.432,2.432,0,1,1,0-4.865H267.634A25.621,25.621,0,0,0,293.226,423.8V187.159a25.621,25.621,0,0,0-25.592-25.592H30.991A25.621,25.621,0,0,0,5.4,187.159V305.481a2.432,2.432,0,0,1-4.865,0V187.159A30.491,30.491,0,0,1,30.991,156.7H267.634a30.491,30.491,0,0,1,30.457,30.457V423.8a30.491,30.491,0,0,1-30.457,30.457" transform="translate(-0.332 -97.231)" fill="#fff"/>
  </g>
</svg>
