<svg xmlns="http://www.w3.org/2000/svg" width="14.761" height="20.348" viewBox="0 0 14.761 20.348">
  <g id="Group_88205" data-name="Group 88205" transform="translate(-11.815 -8.733)">
    <path id="Path_98889" data-name="Path 98889" d="M23.634,24.12V22H10.069v2.12a.637.637,0,0,0,0,1.272H23.634a.637.637,0,0,0,0-1.272" transform="translate(2.344 3.69)" fill="#099bd6"/>
    <path id="Path_98890" data-name="Path 98890" d="M10.069,8.272v2.12H23.634V8.272a.637.637,0,0,0,0-1.272H10.069a.637.637,0,0,0,0,1.272" transform="translate(2.344 1.733)" fill="#099bd6"/>
    <path id="Path_98891" data-name="Path 98891" d="M10,22.3H23.564V11H10Zm7.227-2.544a2.039,2.039,0,0,1-2.038-2.038c0-1.125,2.038-4.073,2.038-4.073s2.037,2.948,2.037,4.073a2.038,2.038,0,0,1-2.037,2.038" transform="translate(2.413 2.254)" fill="#099bd6"/>
  </g>
</svg>
