<svg xmlns="http://www.w3.org/2000/svg" width="21.253" height="21.2" viewBox="0 0 21.253 21.2">
  <path id="Path_99276" data-name="Path 99276" d="M13.436,8a.629.629,0,1,0,.194,1.242h.621v6.391l-5.5,8.517h.04a3.151,3.151,0,0,0,0,4.519l-.04.04c.019.024.063.02.083.041.552.681,2.325.37,2.325.37H25.772s1.567.3,2.2-.287l.041.041c.026-.02.017-.062.041.246H28.1a4.354,4.354,0,0,0,1-2.655,3.3,3.3,0,0,0-.954-2.2l.041-.041-.083-.084-6.39-8.508V9.243h.621a.621.621,0,1,0,0-1.242h-8.7a.624.624,0,0,0-.118,0,.4.4,0,0,0-.077,0Zm2.055,1.241h4.972V15.67l.117.173,3.5,5.824H20.465a1.25,1.25,0,1,0-2.486,0h-6.1l3.5-5.824.117-.173V9.243Z" transform="translate(-7.839 -7.998)" fill="#099bd6"/>
</svg>
