<svg xmlns="http://www.w3.org/2000/svg" width="23.606" height="23.606" viewBox="0 0 23.606 23.606">
  <path id="Path_99278" data-name="Path 99278" d="M8,20.667H9.485a8.638,8.638,0,0,0,1.39,3.374l-1.1,1.081a1,1,0,0,0,0,1.416l1.208,1.184a1.044,1.044,0,0,0,1.444,0l1.1-1.081a10.108,10.108,0,0,0,3.413,1.415V29.6a1.006,1.006,0,0,0,1.006,1.008h1.687a1.034,1.034,0,0,0,1.034-1.034V28.147a9.2,9.2,0,0,0,3.356-1.416l1.085,1.1a1,1,0,0,0,1.42,0l1.188-1.208a1.044,1.044,0,0,0,0-1.444l-1.085-1.1a10.066,10.066,0,0,0,1.419-3.413h1.523a1.037,1.037,0,0,0,1.034-1.034V17.974a1.038,1.038,0,0,0-1.035-1.035h-1.45A9.167,9.167,0,0,0,26.7,13.584l1.1-1.083a1,1,0,0,0,0-1.421l-1.18-1.187a1.041,1.041,0,0,0-1.444,0l-1.1,1.083a10.111,10.111,0,0,0-3.412-1.419V8.035A1.038,1.038,0,0,0,19.633,7h-1.66a1.037,1.037,0,0,0-1.034,1.035V9.486A9.068,9.068,0,0,0,13.566,10.9L12.484,9.8a1,1,0,0,0-1.416,0L9.884,10.982a1.042,1.042,0,0,0,0,1.442l1.081,1.1a10.1,10.1,0,0,0-1.415,3.412H8.006A1.007,1.007,0,0,0,7,17.947v1.7a1.015,1.015,0,0,0,1,1.023m7.431-5.181a4.593,4.593,0,1,1-.026,6.5,4.6,4.6,0,0,1,.026-6.5" transform="translate(-7 -7)" fill="#099bd6"/>
</svg>
