<svg xmlns="http://www.w3.org/2000/svg" width="40.44" height="50.678" viewBox="0 0 40.44 50.678">
  <g id="barrel" transform="translate(-60.9 -10.37)">
    <path id="Path_77622" data-name="Path 77622" d="M134.068,320.777a.608.608,0,0,0,.608-.608v-.591a.608.608,0,0,0-1.216,0v.591A.608.608,0,0,0,134.068,320.777Z" transform="translate(-64.758 -276.88)" fill="#efb844"/>
    <path id="Path_77623" data-name="Path 77623" d="M134.068,353.9a.608.608,0,0,0,.608-.608v-8.971a.608.608,0,1,0-1.216,0v8.971A.608.608,0,0,0,134.068,353.9Z" transform="translate(-64.758 -299.113)" fill="#efb844"/>
    <path id="Path_77624" data-name="Path 77624" d="M307.076,41.861a.608.608,0,0,0-1.049,0L302.311,48.2a4.915,4.915,0,1,0,8.482,0ZM309.167,53.3a3.7,3.7,0,0,1-5.807-4.485l3.191-5.448,3.192,5.448a3.7,3.7,0,0,1-.576,4.486Z" transform="translate(-215.895 -27.58)" fill="#efb844"/>
    <path id="Path_77625" data-name="Path 77625" d="M354.136,125.031a.608.608,0,0,0-.717.475,1.787,1.787,0,0,1-.49.912,1.76,1.76,0,0,1-.68.426.608.608,0,0,0,.4,1.15,3.011,3.011,0,0,0,1.967-2.246A.608.608,0,0,0,354.136,125.031Z" transform="translate(-261.008 -102.582)" fill="#efb844"/>
    <path id="Path_77626" data-name="Path 77626" d="M90.656,10.87A10.167,10.167,0,0,0,82.4,15.1H63.759a2.359,2.359,0,0,0,0,4.718h.623V35.466h-.623a2.358,2.358,0,1,0,0,4.717h.623V55.83h-.623a2.359,2.359,0,1,0,0,4.718H92.346a2.359,2.359,0,0,0,0-4.718h-.624V40.183h.624a2.358,2.358,0,0,0,0-4.717h-.624V31.177A10.182,10.182,0,0,0,90.656,10.87ZM63.759,18.6a1.143,1.143,0,1,1,0-2.286H81.641a10.023,10.023,0,0,0-.869,2.286ZM92.346,57.046a1.143,1.143,0,1,1,0,2.286H63.759a1.143,1.143,0,0,1,0-2.286h2.6a.608.608,0,1,0,0-1.216H65.6V40.183H90.506V55.83H68.824a.608.608,0,1,0,0,1.216Zm0-20.364a1.142,1.142,0,0,1,0,2.285H63.759a1.142,1.142,0,1,1,0-2.285H83.922a.608.608,0,0,0,0-1.216H65.6V19.818H80.55a10.187,10.187,0,0,0,9.956,11.413v4.234H86.76a.608.608,0,0,0,0,1.216Zm-1.263-6.675c-.15.007-.29.01-.428.01a8.969,8.969,0,0,1-8.8-10.683,8.857,8.857,0,0,1,1.338-3.253,8.966,8.966,0,1,1,7.889,13.926Z" transform="translate(0 0)" fill="#efb844" stroke="#efb844" stroke-width="1"/>
  </g>
</svg>
