<svg xmlns="http://www.w3.org/2000/svg" width="50.267" height="50.278" viewBox="0 0 50.267 50.278">
  <path id="internet" d="M43.525,8.478a.776.776,0,0,0-.175-.19,24.783,24.783,0,0,0-37.023,0,.776.776,0,0,0-.167.182V8.49a24.83,24.83,0,1,0,37.388,0Zm-.776,31.2A27.759,27.759,0,0,0,37.17,37.2,39.4,39.4,0,0,0,39.06,25.6H48.1a23.165,23.165,0,0,1-5.354,14.083ZM1.586,25.6H10.63a39.4,39.4,0,0,0,1.889,11.6A27.759,27.759,0,0,0,6.94,39.678,23.165,23.165,0,0,1,1.586,25.6ZM7,9.9a27.84,27.84,0,0,0,5.548,2.46A39.351,39.351,0,0,0,10.63,24.043H1.586A23.165,23.165,0,0,1,7,9.9Zm18.622,4.3a40.872,40.872,0,0,0,10.087-1.412,38.409,38.409,0,0,1,1.816,11.251h-11.9Zm0-1.552V1.588c3.934.438,7.371,4.186,9.544,9.742a39.363,39.363,0,0,1-9.544,1.323Zm-1.552,0a39.359,39.359,0,0,1-9.544-1.323c2.173-5.556,5.61-9.3,9.544-9.742Zm0,1.552v9.839H12.182a38.408,38.408,0,0,1,1.8-11.251A40.876,40.876,0,0,0,24.069,14.2ZM12.182,25.6H24.069v9.753a40.86,40.86,0,0,0-10.087,1.42,38.47,38.47,0,0,1-1.8-11.173ZM24.069,36.9V48.05c-3.949-.442-7.418-4.221-9.575-9.819A39.344,39.344,0,0,1,24.069,36.9Zm1.552,0A39.348,39.348,0,0,1,35.2,38.231c-2.157,5.6-5.625,9.377-9.575,9.819Zm0-1.552V25.6H37.508a38.47,38.47,0,0,1-1.8,11.169,40.86,40.86,0,0,0-10.087-1.416ZM39.06,24.043a39.351,39.351,0,0,0-1.917-11.682A27.84,27.84,0,0,0,42.691,9.9,23.165,23.165,0,0,1,48.1,24.043ZM41.64,8.726A26.657,26.657,0,0,1,36.62,10.9a20.791,20.791,0,0,0-5.746-8.562A23.278,23.278,0,0,1,41.64,8.726ZM18.816,2.337A20.682,20.682,0,0,0,13.074,10.9a26.657,26.657,0,0,1-5.02-2.173,23.278,23.278,0,0,1,10.762-6.39ZM8,40.858a26.556,26.556,0,0,1,5.044-2.2,20.761,20.761,0,0,0,5.773,8.64A23.278,23.278,0,0,1,8,40.858ZM30.885,47.3a21.038,21.038,0,0,0,5.773-8.64,26.56,26.56,0,0,1,5.044,2.2A23.278,23.278,0,0,1,30.874,47.3Z" transform="translate(0.279 0.317)" fill="#efb844" stroke="#efb844" stroke-width="0.6"/>
</svg>
