<svg xmlns="http://www.w3.org/2000/svg" width="63.132" height="49.678" viewBox="0 0 63.132 49.678">
  <g id="Producer" transform="translate(1 -181)">
    <g id="_328167320" transform="translate(-1 181)">
      <g id="Group_87986" data-name="Group 87986" transform="translate(40.844 21.438)">
        <path id="Path_99154" data-name="Path 99154" d="M1110.284,780.221a6.278,6.278,0,0,1-6.284-6.284c0-1.922,2.255-6.321,4.62-10.719.333-.665.665-1.294.85-1.7a.954.954,0,0,1,.813-.518,1.012,1.012,0,0,1,.85.518c.259.443.592,1.22,1.072,2.033,2.292,4.436,4.4,8.464,4.4,10.313A6.3,6.3,0,0,1,1110.284,780.221Zm0-16.3c-.037.074-.037.111-.074.148-1.442,2.661-4.436,8.28-4.436,9.869a4.527,4.527,0,0,0,4.509,4.509,4.48,4.48,0,0,0,4.51-4.509c0-1.552-2.7-6.69-4.177-9.462C1110.505,764.29,1110.395,764.068,1110.284,763.92Z" transform="translate(-1104 -761)" fill="#fff" fill-rule="evenodd"/>
      </g>
      <g id="Group_87987" data-name="Group 87987" transform="translate(46.203 33.525)">
        <path id="Path_99155" data-name="Path 99155" d="M1249.924,1092.583a.924.924,0,0,1,0-1.848,1.783,1.783,0,0,0,1.774-1.811.939.939,0,0,1,.924-.924,1,1,0,0,1,.887,1A3.589,3.589,0,0,1,1249.924,1092.583Z" transform="translate(-1249 -1088)" fill="#fff" fill-rule="evenodd"/>
      </g>
      <g id="Group_87988" data-name="Group 87988" transform="translate(4.325 10.35)">
        <path id="Path_99156" data-name="Path 99156" d="M129.75,495.893H116.924a.915.915,0,0,1-.924-.924V468.282a7.3,7.3,0,0,1,14.6,0v26.687A.816.816,0,0,1,129.75,495.893Zm-11.9-1.811h11.015v-25.8a5.508,5.508,0,0,0-11.015,0Z" transform="translate(-116 -461)" fill="#fff" fill-rule="evenodd"/>
      </g>
      <g id="Group_87989" data-name="Group 87989" transform="translate(17.151 10.35)">
        <path id="Path_99157" data-name="Path 99157" d="M476.75,495.893H463.924a.915.915,0,0,1-.924-.924V468.282a7.3,7.3,0,0,1,14.6,0v26.687A.9.9,0,0,1,476.75,495.893Zm-11.9-1.811h11.015v-25.8a5.508,5.508,0,0,0-11.015,0Z" transform="translate(-463 -461)" fill="#fff" fill-rule="evenodd"/>
      </g>
      <g id="Group_87990" data-name="Group 87990" transform="translate(7.873 5.581)">
        <path id="Path_99158" data-name="Path 99158" d="M218.653,339.282a.915.915,0,0,1-.924-.924v-2.55a2,2,0,1,0-3.992,0v2.55a.915.915,0,0,1-.924.924.828.828,0,0,1-.813-.924v-2.55a3.77,3.77,0,1,1,7.54,0v2.55A.885.885,0,0,1,218.653,339.282Z" transform="translate(-212 -332)" fill="#fff" fill-rule="evenodd"/>
      </g>
      <g id="Group_87991" data-name="Group 87991" transform="translate(20.699 5.581)">
        <path id="Path_99159" data-name="Path 99159" d="M565.653,339.282a.915.915,0,0,1-.924-.924v-2.55a2.011,2.011,0,0,0-2-2,1.956,1.956,0,0,0-1.959,2v2.55a.915.915,0,0,1-.924.924.856.856,0,0,1-.85-.924v-2.55a3.789,3.789,0,1,1,7.577,0v2.55A1.023,1.023,0,0,1,565.653,339.282Z" transform="translate(-559 -332)" fill="#fff" fill-rule="evenodd"/>
      </g>
      <g id="Group_87992" data-name="Group 87992" transform="translate(35.41 16.929)">
        <path id="Path_99160" data-name="Path 99160" d="M979.51,667.313H957.924a.915.915,0,0,1-.924-.924V645.764A6.767,6.767,0,0,1,963.764,639h9.906a6.752,6.752,0,0,1,6.69,6.764v20.625A.816.816,0,0,1,979.51,667.313ZM958.848,665.5h19.775V645.764a4.97,4.97,0,0,0-4.916-4.953H963.8a5,5,0,0,0-4.953,4.953Z" transform="translate(-957 -639)" fill="#fff" fill-rule="evenodd"/>
      </g>
      <g id="Group_87993" data-name="Group 87993" transform="translate(23.545 0)">
        <path id="Path_99161" data-name="Path 99161" d="M659.582,194.972a.965.965,0,0,1-.924-.924V182.737H637.811v4.768a.885.885,0,0,1-.924.887.876.876,0,0,1-.887-.887v-5.618a.885.885,0,0,1,.924-.887h22.658a.908.908,0,0,1,.924.887v12.2A.885.885,0,0,1,659.582,194.972Z" transform="translate(-636 -181)" fill="#fff" fill-rule="evenodd"/>
      </g>
      <g id="Group_87994" data-name="Group 87994" transform="translate(10.719 0)">
        <path id="Path_99162" data-name="Path 99162" d="M289.924,188.393a.908.908,0,0,1-.924-.887v-5.618a.885.885,0,0,1,.924-.887H302.75a.908.908,0,0,1,.924.887.965.965,0,0,1-.924.924H290.811v4.768A.889.889,0,0,1,289.924,188.393Z" transform="translate(-289 -181)" fill="#fff" fill-rule="evenodd"/>
      </g>
      <g id="Group_87995" data-name="Group 87995" transform="translate(0 43.431)">
        <path id="Path_99163" data-name="Path 99163" d="M61.208,1362.247H-.076A.932.932,0,0,1-1,1361.36v-2.218A3.188,3.188,0,0,1,2.142,1356H59.027a3.156,3.156,0,0,1,3.1,3.142v2.218A.932.932,0,0,1,61.208,1362.247Zm-60.36-1.774h59.51v-1.331a1.349,1.349,0,0,0-1.331-1.331H2.179a1.325,1.325,0,0,0-1.331,1.331Z" transform="translate(1 -1356)" fill="#fff" fill-rule="evenodd"/>
      </g>
      <g id="Group_87996" data-name="Group 87996" transform="translate(42.285 12.161)">
        <path id="Path_99164" data-name="Path 99164" d="M1151.871,516.579h-7.947a.939.939,0,0,1-.924-.924v-1.848a3.77,3.77,0,0,1,3.77-3.807h2.181a3.843,3.843,0,0,1,3.77,3.807v1.848A.854.854,0,0,1,1151.871,516.579Zm-7.1-1.811h6.173v-.924a2.036,2.036,0,0,0-2-2h-2.181a2.036,2.036,0,0,0-2,2Z" transform="translate(-1143 -510)" fill="#fff" fill-rule="evenodd"/>
      </g>
      <g id="Group_87997" data-name="Group 87997" transform="translate(4.325 19.479)">
        <path id="Path_99165" data-name="Path 99165" d="M142.576,713.508H116.924a.915.915,0,0,1-.924-.924v-3.659a.915.915,0,0,1,.924-.924h25.652a.939.939,0,0,1,.924.924v3.659A.992.992,0,0,1,142.576,713.508ZM117.848,711.7h23.841v-1.848H117.848Z" transform="translate(-116 -708)" fill="#fff" fill-rule="evenodd"/>
      </g>
      <g id="Group_87998" data-name="Group 87998" transform="translate(4.325 33.599)">
        <path id="Path_99166" data-name="Path 99166" d="M142.576,1095.47H116.924a.915.915,0,0,1-.924-.924v-3.622a.915.915,0,0,1,.924-.924h25.652a.939.939,0,0,1,.924.924v3.622A.992.992,0,0,1,142.576,1095.47Zm-24.728-1.774h23.841v-1.848H117.848Z" transform="translate(-116 -1090)" fill="#fff" fill-rule="evenodd"/>
      </g>
    </g>
  </g>
</svg>
