<svg xmlns="http://www.w3.org/2000/svg" width="51.6" height="51.6" viewBox="0 0 51.6 51.6">
  <g id="Capcity" transform="translate(-0.2 -0.2)">
    <path id="Path_99173" data-name="Path 99173" d="M41.467,1H10.533A9.55,9.55,0,0,0,1,10.533V41.467A9.55,9.55,0,0,0,10.533,51H41.467A9.55,9.55,0,0,0,51,41.467V10.533A9.55,9.55,0,0,0,41.467,1Zm6.2,40.467a6.217,6.217,0,0,1-6.2,6.2H10.533a6.217,6.217,0,0,1-6.2-6.2V10.533a6.217,6.217,0,0,1,6.2-6.2H41.467a6.217,6.217,0,0,1,6.2,6.2Z" transform="translate(0 0)" fill="#fff" stroke="#efb844" stroke-width="1.6"/>
    <path id="Path_99174" data-name="Path 99174" d="M37.667,25.733A1.667,1.667,0,0,0,36,27.4v6.25L11.683,9.333h6.25a1.667,1.667,0,0,0,0-3.333H7.15A1.15,1.15,0,0,0,6,7.15V17.933a1.667,1.667,0,0,0,3.333,0v-6.25L33.65,36H27.4a1.667,1.667,0,1,0,0,3.333H38.183a1.15,1.15,0,0,0,1.15-1.15V27.4A1.667,1.667,0,0,0,37.667,25.733Z" transform="translate(3.333 3.333)" fill="#fff" stroke="#efb844" stroke-width="1.6"/>
  </g>
</svg>
