<svg xmlns="http://www.w3.org/2000/svg" width="62.227" height="51.243" viewBox="0 0 62.227 51.243">
  <g id="Domestic" transform="translate(-1374.313 -6353.954)">
    <path id="Path_77620" data-name="Path 77620" d="M34.7,10.015A13.976,13.976,0,0,1,24.593,5.8C19.53,1.473,14.223-1.69,7.47,2.733c2.146,2.974.3,6.382-3.848,6.808C2.439,9.656,1.2,8.8.837,10.855c-.265,1.466-.693,2.525,1.2,3.286.87.357,1.468,1.671,1.938,2.664" transform="translate(1374.65 6354.35)" fill="none" stroke="#fff" stroke-width="2"/>
    <path id="Path_77621" data-name="Path 77621" d="M2.027,11.375c2.9,6.108,9.176,10.4,9.566,17.9a3.812,3.812,0,0,0,2.061,2.515c2.019.929,2.633,2.744,3.647,4.408,1.5,2.461,3.257,4.763,5.957,8.654-.622-5.25,1.99-4.333,3.966-4.29a18.592,18.592,0,0,1,5.808.645c1.532.563,2.364.44,3.089-.856a8.317,8.317,0,0,1,7.524-3.9,44.5,44.5,0,0,0,11.762-3.033c3.4-1.094,3.326-4.333,3.524-6.9s-2.555-2.279-4.146-2.423c-6.5-.612-9.027-5.222-11.346-10.37C41.717,9.9,37.562,4.387,32.756,4.586" transform="translate(1376.597 6359.779)" fill="none" stroke="#fff" stroke-width="2"/>
  </g>
</svg>
