<svg xmlns="http://www.w3.org/2000/svg" width="52.523" height="50.666" viewBox="0 0 52.523 50.666">
  <path id="Alliance" d="M50.067,45.126a.754.754,0,0,0,.04-.1A25.233,25.233,0,0,0,48.633,22.5a3.093,3.093,0,0,0-3.679-4.8c-.534-.546-1.095-1.069-1.676-1.563a3.092,3.092,0,0,0-5.037-3.328,24.92,24.92,0,0,0-22.315.118,3.088,3.088,0,0,0-5.056,3.428,25.179,25.179,0,0,0-2.383,2.382c-.637.729.517,1.728,1.15,1a23.652,23.652,0,0,1,2.215-2.217,3.11,3.11,0,0,0,4.555-1.135,33.228,33.228,0,0,1,7.823,3.386,3.142,3.142,0,0,0,.23,2.246,35.118,35.118,0,0,0-5.4,5.865,3.117,3.117,0,0,0-3.689,1.673,47.609,47.609,0,0,0-9.581,1.03,3.112,3.112,0,0,0-1.214-1.239,23.37,23.37,0,0,1,2.8-6.55.764.764,0,0,0-1.3-.806A24.891,24.891,0,0,0,3.1,28.956,3.1,3.1,0,0,0,2.31,35.05a25.214,25.214,0,0,0,8.459,18.967,3.089,3.089,0,0,0,4.942,3.405,24.913,24.913,0,0,0,22.979,0,3.088,3.088,0,0,0,5-3.457,25,25,0,0,0,6.377-8.841Zm-.962-1.707a47.885,47.885,0,0,0-6.894-5.675,3.128,3.128,0,0,0-.773-3.144,47.7,47.7,0,0,0,4.853-11.019,3.053,3.053,0,0,0,1.088-.2A23.7,23.7,0,0,1,49.105,43.419ZM13.982,52.047a33.482,33.482,0,0,1,3.275-18.242A3.118,3.118,0,0,0,21.2,31.428a45.7,45.7,0,0,1,15.089,4.6,3.136,3.136,0,0,0,.506,2.61,46.077,46.077,0,0,1-20.54,14.834,3.085,3.085,0,0,0-2.272-1.425ZM37.717,36.8a1.569,1.569,0,1,1,1.557,1.569A1.565,1.565,0,0,1,37.717,36.8ZM47.855,20.486A1.569,1.569,0,1,1,46.3,18.917,1.565,1.565,0,0,1,47.855,20.486Zm-4.067-1.794A3.133,3.133,0,0,0,44.813,23.2a46.179,46.179,0,0,1-4.691,10.629,3.133,3.133,0,0,0-1.315-.084,35.4,35.4,0,0,0-8.867-11.721,3.139,3.139,0,0,0,.231-2.246,33.226,33.226,0,0,1,7.522-3.3,3.088,3.088,0,0,0,4.693.9q.726.625,1.4,1.309ZM25.644,20.6A1.569,1.569,0,1,1,27.2,22.172,1.565,1.565,0,0,1,25.644,20.6Zm14.764-7.162A1.557,1.557,0,1,1,38.85,15.01,1.565,1.565,0,0,1,40.407,13.441ZM13.648,16.578a1.557,1.557,0,1,1,1.557-1.569A1.565,1.565,0,0,1,13.648,16.578Zm3.081-1.686a3.1,3.1,0,0,0-.085-.617,23.388,23.388,0,0,1,20.81-.154,3.094,3.094,0,0,0-.13.872,34.757,34.757,0,0,0-7.911,3.456,3.108,3.108,0,0,0-4.424,0,34.759,34.759,0,0,0-8.26-3.557Zm8.743,8.272a3.1,3.1,0,0,0,3.459,0A33.869,33.869,0,0,1,37.4,34.343a3.117,3.117,0,0,0-.38.346A47.217,47.217,0,0,0,21.1,29.877a3.1,3.1,0,0,0-.729-1.2A33.579,33.579,0,0,1,25.471,23.165Zm-7.3,6.116a1.557,1.557,0,1,1-1.557,1.569A1.565,1.565,0,0,1,18.171,29.281ZM1.514,32.051a1.569,1.569,0,1,1,1.557,1.568A1.565,1.565,0,0,1,1.514,32.051Zm2.322,3a3.031,3.031,0,0,0,2.318-2.979,86.072,86.072,0,0,1,8.942-.984A3.089,3.089,0,0,0,15.953,33a35.005,35.005,0,0,0-3.484,19.267,3.089,3.089,0,0,0-.813.5,25.5,25.5,0,0,1-7.82-17.714Zm9.812,21.643a1.569,1.569,0,0,1,0-3.137,1.592,1.592,0,0,1,1.557,1.569A1.565,1.565,0,0,1,13.648,56.692ZM27.2,58.715a23.31,23.31,0,0,1-10.642-2.572,3.175,3.175,0,0,0,.166-1.219A47.6,47.6,0,0,0,37.974,39.607a3.077,3.077,0,0,0,1.464.285,33.7,33.7,0,0,1,.8,3.827.763.763,0,0,0,1.51-.223,35.231,35.231,0,0,0-.849-4.062,3.1,3.1,0,0,0,.507-.394,46.342,46.342,0,0,1,7.073,5.911,23.473,23.473,0,0,1-5.743,7.827,3.077,3.077,0,0,0-.808-.435,35.475,35.475,0,0,0,.193-4.269.763.763,0,0,0-1.526.024,33.948,33.948,0,0,1-.187,4.1,3.129,3.129,0,0,0-2.482,3.9A23.307,23.307,0,0,1,27.2,58.715Zm13.687-1.89a1.557,1.557,0,1,1,1.557-1.569A1.565,1.565,0,0,1,40.888,56.825Z" transform="translate(0.111 -9.912)" fill="#fff" stroke="#fff" stroke-width="0.2"/>
</svg>
