<svg xmlns="http://www.w3.org/2000/svg" width="64.428" height="50.132" viewBox="0 0 64.428 50.132">
  <g id="Relation" transform="translate(0.157 -57.343)">
    <g id="XMLID_396_" transform="translate(0 57.647)">
      <path id="XMLID_429_" d="M63.713,74.531l-1.67-2.893a1.252,1.252,0,0,0-2.169,1.252l1.67,2.893a.488.488,0,0,1-.179.668L56.949,79a.49.49,0,0,1-.668-.179L47.4,63.434a.49.49,0,0,1,.179-.668l4.416-2.55a.49.49,0,0,1,.668.179l1.579,2.735a1.252,1.252,0,0,0,2.169-1.252l-1.579-2.735a3,3,0,0,0-4.089-1.1L46.323,60.6A2.982,2.982,0,0,0,44.97,62.28H32.45A6.538,6.538,0,0,0,27.8,64.208L26.514,65.49a14.815,14.815,0,0,0-3.436-.406H19.191a2.984,2.984,0,0,0-1.4-1.843l-4.416-2.55a2.993,2.993,0,0,0-4.089,1.1L.4,77.176a2.993,2.993,0,0,0,1.1,4.089l4.416,2.55a2.974,2.974,0,0,0,1.492.4,3.014,3.014,0,0,0,.55-.051l3.615,3.615a4.555,4.555,0,0,0-.084.872,4.5,4.5,0,0,0,4.255,4.5,4.574,4.574,0,0,0-.025.476,4.5,4.5,0,0,0,4.5,4.5l.1,0c0,.033,0,.065,0,.1a4.5,4.5,0,0,0,4.5,4.5l.1,0c0,.033,0,.065,0,.1a4.5,4.5,0,0,0,7.69,3.185l1.781-1.781a4.477,4.477,0,0,0,1.1-1.8,4.508,4.508,0,0,0,6.976-2.289,4.507,4.507,0,0,0,6.871-2.867,4.506,4.506,0,0,0,4.606-7.462l-2.923-2.923,5.335-5.335a3.014,3.014,0,0,0,.358.022,2.975,2.975,0,0,0,1.492-.4l4.416-2.55a2.993,2.993,0,0,0,1.1-4.089ZM2.75,79.1a.489.489,0,0,1-.179-.668L11.455,63.04a.486.486,0,0,1,.3-.228.5.5,0,0,1,.128-.017.482.482,0,0,1,.243.065l4.416,2.55a.489.489,0,0,1,.179.668L7.834,81.466a.489.489,0,0,1-.668.179Zm11.24,9.554a1.987,1.987,0,0,1,.586-1.415l1.081-1.081a2,2,0,1,1,2.829,2.829l-1.081,1.081a2,2,0,0,1-3.415-1.414Zm6.23,6.971a2,2,0,0,1-1.414-3.415l1.781-1.781a2,2,0,1,1,2.829,2.829l-1.781,1.781A1.987,1.987,0,0,1,20.22,95.62Zm4.6,4.6a2,2,0,0,1-1.414-3.415l1.781-1.781a2,2,0,1,1,2.829,2.829l-1.781,1.781A1.987,1.987,0,0,1,24.82,100.221Zm7.8,2.233-1.781,1.781a2,2,0,1,1-2.829-2.829l1.781-1.781a2,2,0,1,1,2.829,2.829Zm19.553-8.048a2,2,0,0,1-2.829,0L37.387,82.453a1.252,1.252,0,0,0-1.771,1.771L46.335,94.943a2,2,0,1,1-2.829,2.829l-12.88-12.88a1.252,1.252,0,0,0-1.771,1.771L39.574,97.382a2,2,0,1,1-2.829,2.829l-2.357-2.357-.01-.009A4.491,4.491,0,0,0,31.1,96.539c0-.033,0-.066,0-.1a4.5,4.5,0,0,0-4.6-4.5c0-.033,0-.066,0-.1a4.5,4.5,0,0,0-4.935-4.482,4.5,4.5,0,0,0-7.685-2.973l-1.081,1.081,0,0-2.781-2.781,8.717-15.1h4.34a12.3,12.3,0,0,1,1.271.066l-1.431,1.431a4.5,4.5,0,0,0,6.371,6.371l3.38-3.38,19.5,19.5a2,2,0,0,1,0,2.829ZM40.138,76a7.106,7.106,0,0,0,2.939-5.759,1.252,1.252,0,0,0-2.5,0A4.6,4.6,0,0,1,38.33,74.2L33.56,69.426a1.251,1.251,0,0,0-1.77-.013l-4.273,4.273a2,2,0,1,1-2.829-2.829l4.879-4.879a4.05,4.05,0,0,1,2.882-1.194H45.285l8.827,15.29c.021.036.044.071.066.106l-4.932,4.932Z" transform="translate(0 -57.647)" fill="#fff" stroke="#efb844" stroke-width="0.3"/>
      <path id="XMLID_436_" d="M455.56,127.918a1.253,1.253,0,1,0-.885-.367A1.264,1.264,0,0,0,455.56,127.918Z" transform="translate(-397.419 -116.928)" fill="#fff" stroke="#efb844" stroke-width="0.3"/>
    </g>
  </g>
</svg>
