<svg xmlns="http://www.w3.org/2000/svg" width="43.13" height="49.678" viewBox="0 0 43.13 49.678">
  <g id="safe" transform="translate(-5.82 -2)">
    <path id="Path_98896" data-name="Path 98896" d="M27.385,2,5.82,6.745V28.466c0,6.219,3.55,12.125,9.506,15.8l12.059,7.413,12.059-7.413c5.955-3.674,9.506-9.58,9.506-15.8V6.745Zm18.27,26.466c0,5.066-2.965,9.885-7.949,13L27.385,47.84,17.064,41.464c-4.942-3.072-7.949-7.932-7.949-13V9.413l18.27-4.077,18.27,4.077Z" fill="#efb844"/>
    <path id="Path_98897" data-name="Path 98897" d="M19.721,26.771,17.39,29.1l8.13,8.13L41.459,21.3,39.128,18.97,25.52,32.578Z" transform="translate(-2.04 -2.992)" fill="#efb844"/>
  </g>
</svg>
