<svg xmlns="http://www.w3.org/2000/svg" width="49.628" height="49.628" viewBox="0 0 49.628 49.628">
  <g id="solutions" transform="translate(0)">
    <path id="Path_98898" data-name="Path 98898" d="M2.908,24.814A21.9,21.9,0,0,1,37.337,6.842H34.519a1.454,1.454,0,0,0,0,2.908h6.813A1.454,1.454,0,0,0,42.786,8.3V1.483a1.454,1.454,0,1,0-2.908,0V5.1A24.809,24.809,0,0,0,3.328,37.221a1.454,1.454,0,0,0,2.517-1.456A21.892,21.892,0,0,1,2.908,24.814Z" transform="translate(0 0)" fill="#efb844"/>
    <path id="Path_98899" data-name="Path 98899" d="M110.046,121.238a1.454,1.454,0,0,0-2.517,1.456,21.9,21.9,0,0,1-31.491,28.923h2.817a1.454,1.454,0,1,0,0-2.908H72.041a1.454,1.454,0,0,0-1.454,1.454v6.813a1.454,1.454,0,1,0,2.908,0v-3.623a24.808,24.808,0,0,0,36.551-32.116Z" transform="translate(-63.745 -108.831)" fill="#efb844"/>
    <path id="Path_98900" data-name="Path 98900" d="M147.989,131.164a1.454,1.454,0,0,0-.145-1.1l-2.908-5.037a1.454,1.454,0,0,0-1.986-.532l-1.655.956a10.541,10.541,0,0,0-1.875-1.086v-1.907A1.454,1.454,0,0,0,137.966,121H132.15a1.454,1.454,0,0,0-1.454,1.454v1.907a10.55,10.55,0,0,0-1.875,1.086l-1.655-.956a1.454,1.454,0,0,0-1.986.532l-2.908,5.037a1.454,1.454,0,0,0,.532,1.986l1.647.951a10.75,10.75,0,0,0,0,2.175l-1.647.951a1.454,1.454,0,0,0-.532,1.986l2.908,5.037a1.454,1.454,0,0,0,1.986.532l1.655-.956a10.534,10.534,0,0,0,1.875,1.086v1.908a1.454,1.454,0,0,0,1.454,1.454h5.816a1.454,1.454,0,0,0,1.454-1.454V143.81a10.542,10.542,0,0,0,1.875-1.086l1.655.956a1.454,1.454,0,0,0,1.986-.532l2.908-5.037a1.454,1.454,0,0,0-.532-1.986l-1.647-.951a10.747,10.747,0,0,0,0-2.175l1.647-.951A1.455,1.455,0,0,0,147.989,131.164Zm-5.334,1.361a7.834,7.834,0,0,1,0,3.12,1.454,1.454,0,0,0,.7,1.55l1.246.719-1.454,2.518-1.257-.725a1.454,1.454,0,0,0-1.692.172,7.7,7.7,0,0,1-2.69,1.558,1.454,1.454,0,0,0-.995,1.38v1.445H133.6v-1.445a1.454,1.454,0,0,0-.995-1.38,7.7,7.7,0,0,1-2.69-1.558,1.454,1.454,0,0,0-1.692-.172l-1.257.725-1.454-2.518,1.246-.719a1.454,1.454,0,0,0,.7-1.55,7.839,7.839,0,0,1,0-3.12,1.454,1.454,0,0,0-.7-1.55l-1.246-.719,1.454-2.518,1.257.725a1.454,1.454,0,0,0,1.692-.172,7.7,7.7,0,0,1,2.69-1.558,1.454,1.454,0,0,0,.995-1.38v-1.445h2.908v1.445a1.454,1.454,0,0,0,.995,1.38,7.7,7.7,0,0,1,2.69,1.558,1.454,1.454,0,0,0,1.692.172l1.257-.725,1.454,2.518-1.246.719A1.454,1.454,0,0,0,142.655,132.525Z" transform="translate(-110.243 -109.271)" fill="#efb844"/>
    <path id="Path_98901" data-name="Path 98901" d="M206.331,201a5.331,5.331,0,1,0,5.331,5.331A5.337,5.337,0,0,0,206.331,201Zm0,7.754a2.423,2.423,0,1,1,2.423-2.423A2.426,2.426,0,0,1,206.331,208.754Z" transform="translate(-181.517 -181.517)" fill="#efb844"/>
  </g>
</svg>
